<mxfile host="app.diagrams.net" modified="2022-06-21T12:21:41.271Z" agent="5.0 (Macintosh; Intel Mac OS X 10_15_7) AppleWebKit/537.36 (KHTML, like Gecko) Chrome/102.0.0.0 Safari/537.36" etag="Y9PWNGp7NVr7_w01wzPI" version="18.1.3" type="github">
  <diagram id="6a731a19-8d31-9384-78a2-239565b7b9f0" name="Page-1">
    <mxGraphModel dx="946" dy="564" grid="0" gridSize="10" guides="1" tooltips="1" connect="1" arrows="1" fold="1" page="1" pageScale="1" pageWidth="1169" pageHeight="827" background="none" math="0" shadow="0">
      <root>
        <mxCell id="0" />
        <mxCell id="1" parent="0" />
        <mxCell id="FMA6QsWYxSXVYqANfD5H-64" value="" style="edgeStyle=orthogonalEdgeStyle;rounded=0;orthogonalLoop=1;jettySize=auto;html=1;fillColor=#EDEDED;" edge="1" parent="1" source="FMA6QsWYxSXVYqANfD5H-57" target="FMA6QsWYxSXVYqANfD5H-58">
          <mxGeometry relative="1" as="geometry" />
        </mxCell>
        <mxCell id="FMA6QsWYxSXVYqANfD5H-57" value="上证指数收盘价对数序列" style="rounded=1;whiteSpace=wrap;html=1;fillColor=none;" vertex="1" parent="1">
          <mxGeometry x="240" y="220" width="120" height="60" as="geometry" />
        </mxCell>
        <mxCell id="FMA6QsWYxSXVYqANfD5H-65" value="" style="edgeStyle=orthogonalEdgeStyle;rounded=0;orthogonalLoop=1;jettySize=auto;html=1;fillColor=#EDEDED;" edge="1" parent="1" source="FMA6QsWYxSXVYqANfD5H-58" target="FMA6QsWYxSXVYqANfD5H-59">
          <mxGeometry relative="1" as="geometry" />
        </mxCell>
        <mxCell id="FMA6QsWYxSXVYqANfD5H-58" value="平稳性检验" style="rounded=0;whiteSpace=wrap;html=1;fillColor=none;" vertex="1" parent="1">
          <mxGeometry x="240" y="300" width="120" height="60" as="geometry" />
        </mxCell>
        <mxCell id="FMA6QsWYxSXVYqANfD5H-66" value="平稳" style="edgeStyle=orthogonalEdgeStyle;rounded=0;orthogonalLoop=1;jettySize=auto;html=1;fillColor=#EDEDED;exitX=0.5;exitY=1;exitDx=0;exitDy=0;" edge="1" parent="1" source="FMA6QsWYxSXVYqANfD5H-59" target="FMA6QsWYxSXVYqANfD5H-60">
          <mxGeometry relative="1" as="geometry">
            <mxPoint x="300" y="468" as="sourcePoint" />
          </mxGeometry>
        </mxCell>
        <mxCell id="FMA6QsWYxSXVYqANfD5H-70" value="" style="edgeStyle=orthogonalEdgeStyle;rounded=0;orthogonalLoop=1;jettySize=auto;html=1;fillColor=#EDEDED;" edge="1" parent="1" source="FMA6QsWYxSXVYqANfD5H-59" target="FMA6QsWYxSXVYqANfD5H-63">
          <mxGeometry relative="1" as="geometry" />
        </mxCell>
        <mxCell id="FMA6QsWYxSXVYqANfD5H-72" value="非平稳&lt;br&gt;" style="edgeLabel;html=1;align=center;verticalAlign=middle;resizable=0;points=[];" vertex="1" connectable="0" parent="FMA6QsWYxSXVYqANfD5H-70">
          <mxGeometry x="-0.0889" y="-2" relative="1" as="geometry">
            <mxPoint y="1" as="offset" />
          </mxGeometry>
        </mxCell>
        <mxCell id="FMA6QsWYxSXVYqANfD5H-59" value="是否平稳" style="rhombus;whiteSpace=wrap;html=1;fillColor=none;" vertex="1" parent="1">
          <mxGeometry x="240" y="380" width="120" height="80" as="geometry" />
        </mxCell>
        <mxCell id="FMA6QsWYxSXVYqANfD5H-67" value="" style="edgeStyle=orthogonalEdgeStyle;rounded=0;orthogonalLoop=1;jettySize=auto;html=1;fillColor=#EDEDED;" edge="1" parent="1" source="FMA6QsWYxSXVYqANfD5H-60" target="FMA6QsWYxSXVYqANfD5H-61">
          <mxGeometry relative="1" as="geometry" />
        </mxCell>
        <mxCell id="FMA6QsWYxSXVYqANfD5H-60" value="AIC/BIC准则定阶" style="rounded=0;whiteSpace=wrap;html=1;fillColor=none;" vertex="1" parent="1">
          <mxGeometry x="240" y="480" width="120" height="60" as="geometry" />
        </mxCell>
        <mxCell id="FMA6QsWYxSXVYqANfD5H-69" value="" style="edgeStyle=orthogonalEdgeStyle;rounded=0;orthogonalLoop=1;jettySize=auto;html=1;fillColor=#EDEDED;" edge="1" parent="1" source="FMA6QsWYxSXVYqANfD5H-61" target="FMA6QsWYxSXVYqANfD5H-62">
          <mxGeometry relative="1" as="geometry" />
        </mxCell>
        <mxCell id="FMA6QsWYxSXVYqANfD5H-61" value="ARIMA" style="rounded=0;whiteSpace=wrap;html=1;fillColor=none;" vertex="1" parent="1">
          <mxGeometry x="240" y="560" width="120" height="60" as="geometry" />
        </mxCell>
        <mxCell id="FMA6QsWYxSXVYqANfD5H-62" value="预测，结果评估" style="rounded=1;whiteSpace=wrap;html=1;fillColor=none;" vertex="1" parent="1">
          <mxGeometry x="240" y="640" width="120" height="60" as="geometry" />
        </mxCell>
        <mxCell id="FMA6QsWYxSXVYqANfD5H-74" value="" style="edgeStyle=orthogonalEdgeStyle;rounded=0;orthogonalLoop=1;jettySize=auto;html=1;fillColor=#EDEDED;entryX=1;entryY=0.5;entryDx=0;entryDy=0;exitX=0.5;exitY=0;exitDx=0;exitDy=0;" edge="1" parent="1" source="FMA6QsWYxSXVYqANfD5H-63" target="FMA6QsWYxSXVYqANfD5H-58">
          <mxGeometry relative="1" as="geometry" />
        </mxCell>
        <mxCell id="FMA6QsWYxSXVYqANfD5H-63" value="序列差分" style="rounded=0;whiteSpace=wrap;html=1;fillColor=none;" vertex="1" parent="1">
          <mxGeometry x="424" y="390" width="120" height="60" as="geometry" />
        </mxCell>
      </root>
    </mxGraphModel>
  </diagram>
</mxfile>
